<svg width="1200" height="675" viewBox="0 0 1200 675" xmlns="http://www.w3.org/2000/svg">
  <defs>
    <linearGradient id="bg-ai" x1="0%" y1="0%" x2="100%" y2="100%">
      <stop offset="0%" stop-color="#0A1022"/>
      <stop offset="100%" stop-color="#0C1F36"/>
    </linearGradient>
    <linearGradient id="ai-accent" x1="0%" y1="0%" x2="100%" y2="0%">
      <stop offset="0%" stop-color="#00C2FF"/>
      <stop offset="100%" stop-color="#00C48C"/>
    </linearGradient>
  </defs>
  <rect width="1200" height="675" fill="url(#bg-ai)"/>
  <g opacity="0.45">
    <circle cx="280" cy="200" r="180" fill="#00C2FF"/>
    <circle cx="950" cy="240" r="220" fill="#00C48C"/>
    <circle cx="620" cy="560" r="240" fill="#0041C2"/>
  </g>
  <g stroke="url(#ai-accent)" stroke-width="2" fill="none" opacity="0.65">
    <path d="M220 470 C480 370 780 380 1040 300"/>
    <path d="M320 520 C600 400 900 420 1160 340"/>
  </g>
  <g fill="#E8FBF5" font-family="Inter, Arial, sans-serif">
    <text x="200" y="130" font-size="42" font-weight="700">AI Infrastructure Summit</text>
    <text x="200" y="175" font-size="20" opacity="0.9">GPU Pods · RoCE · NVMe-oF · Observability</text>
  </g>
  <g fill="none" stroke="#00C48C" stroke-width="2" opacity="0.6">
    <rect x="220" y="300" width="180" height="70" rx="10"/>
    <rect x="460" y="280" width="180" height="70" rx="10"/>
    <rect x="700" y="260" width="180" height="70" rx="10"/>
    <rect x="940" y="250" width="180" height="70" rx="10"/>
  </g>
  <g fill="#E6FFF5" font-family="Inter, Arial, sans-serif" font-size="14" font-weight="600">
    <text x="235" y="340">Spine 400G</text>
    <text x="475" y="320">Leaf 200G</text>
    <text x="715" y="300">GPU Pod (RoCE)</text>
    <text x="955" y="290">NVMe-oF</text>
  </g>
</svg>

