<svg width="1600" height="900" viewBox="0 0 1600 900" xmlns="http://www.w3.org/2000/svg">
  <defs>
    <linearGradient id="bg-hybrid" x1="0%" y1="0%" x2="100%" y2="100%">
      <stop offset="0%" stop-color="#0A1224"/>
      <stop offset="100%" stop-color="#0B2544"/>
    </linearGradient>
    <linearGradient id="hy-accent" x1="0%" y1="0%" x2="100%" y2="0%">
      <stop offset="0%" stop-color="#0041C2"/>
      <stop offset="100%" stop-color="#00C2FF"/>
    </linearGradient>
  </defs>
  <rect width="1600" height="900" fill="url(#bg-hybrid)"/>
  <g opacity="0.45">
    <circle cx="360" cy="240" r="200" fill="#0041C2"/>
    <circle cx="1250" cy="280" r="240" fill="#00C2FF"/>
    <circle cx="820" cy="760" r="260" fill="#0041C2"/>
  </g>
  <g fill="none" stroke="url(#hy-accent)" stroke-width="2" opacity="0.65">
    <path d="M240 620 C520 520 940 520 1240 420"/>
    <path d="M360 700 C640 560 980 560 1320 460"/>
    <path d="M520 740 C820 600 1180 600 1400 520"/>
  </g>
  <g fill="none" stroke="#00C48C" stroke-width="2" opacity="0.6">
    <rect x="240" y="360" width="190" height="90" rx="12"/>
    <rect x="520" y="330" width="200" height="90" rx="12"/>
    <rect x="820" y="300" width="210" height="90" rx="12"/>
    <rect x="1120" y="280" width="200" height="90" rx="12"/>
  </g>
  <g fill="#E7F5FF" font-family="Inter, Arial, sans-serif">
    <text x="250" y="410" font-size="20" font-weight="600">On-Prem Edge / Router</text>
    <text x="530" y="380" font-size="20" font-weight="600">Cloud Gateway</text>
    <text x="830" y="350" font-size="20" font-weight="600">VPC / VNet Fabric</text>
    <text x="1130" y="330" font-size="20" font-weight="600">Managed K8s + Storage</text>
  </g>
  <g fill="#FFFFFF" font-family="Inter, Arial, sans-serif">
    <text x="220" y="170" font-size="48" font-weight="700">Cloud & Hybrid Architecture</text>
    <text x="220" y="230" font-size="24" opacity="0.85">Direct Connect / ExpressRoute 路 BGP 路 K8s 路 Object Storage 路 Observability</text>
  </g>
</svg>

